<mxfile host="app.diagrams.net" agent="Mozilla/5.0 (Windows NT 10.0; Win64; x64) AppleWebKit/537.36 (KHTML, like Gecko) Chrome/131.0.0.0 Safari/537.36" version="25.0.3">
  <diagram name="Page-1" id="MMlj_eGXygu0iREtkNkB">
    <mxGraphModel dx="1050" dy="557" grid="1" gridSize="10" guides="1" tooltips="1" connect="1" arrows="1" fold="1" page="1" pageScale="1" pageWidth="850" pageHeight="1100" math="0" shadow="0">
      <root>
        <mxCell id="0" />
        <mxCell id="1" parent="0" />
        <mxCell id="3DfL6tc4CCfVg-Idn4Z4-5" style="edgeStyle=orthogonalEdgeStyle;rounded=0;orthogonalLoop=1;jettySize=auto;html=1;exitX=1;exitY=0.5;exitDx=0;exitDy=0;entryX=1;entryY=0.75;entryDx=0;entryDy=0;" parent="1" source="3DfL6tc4CCfVg-Idn4Z4-2" edge="1" target="3DfL6tc4CCfVg-Idn4Z4-22">
          <mxGeometry relative="1" as="geometry">
            <mxPoint x="160" y="310" as="targetPoint" />
            <Array as="points">
              <mxPoint x="330" y="50" />
              <mxPoint x="330" y="200" />
            </Array>
          </mxGeometry>
        </mxCell>
        <mxCell id="3DfL6tc4CCfVg-Idn4Z4-2" value="Start" style="ellipse;whiteSpace=wrap;html=1;" parent="1" vertex="1">
          <mxGeometry x="230" y="20" width="80" height="60" as="geometry" />
        </mxCell>
        <mxCell id="3DfL6tc4CCfVg-Idn4Z4-12" style="edgeStyle=orthogonalEdgeStyle;rounded=0;orthogonalLoop=1;jettySize=auto;html=1;exitX=0.423;exitY=1.07;exitDx=0;exitDy=0;exitPerimeter=0;" parent="1" edge="1" source="3DfL6tc4CCfVg-Idn4Z4-22">
          <mxGeometry relative="1" as="geometry">
            <mxPoint x="320" y="320" as="targetPoint" />
            <mxPoint x="80" y="320" as="sourcePoint" />
            <Array as="points">
              <mxPoint x="91" y="270" />
              <mxPoint x="321" y="270" />
            </Array>
          </mxGeometry>
        </mxCell>
        <mxCell id="3DfL6tc4CCfVg-Idn4Z4-29" value="" style="edgeStyle=orthogonalEdgeStyle;rounded=0;orthogonalLoop=1;jettySize=auto;html=1;entryX=0;entryY=0.5;entryDx=0;entryDy=0;entryPerimeter=0;" parent="1" source="3DfL6tc4CCfVg-Idn4Z4-13" edge="1" target="3DfL6tc4CCfVg-Idn4Z4-33">
          <mxGeometry relative="1" as="geometry">
            <mxPoint x="520" y="200" as="targetPoint" />
            <Array as="points">
              <mxPoint x="380" y="200" />
              <mxPoint x="480" y="200" />
              <mxPoint x="480" y="120" />
            </Array>
          </mxGeometry>
        </mxCell>
        <mxCell id="3DfL6tc4CCfVg-Idn4Z4-35" style="edgeStyle=orthogonalEdgeStyle;rounded=0;orthogonalLoop=1;jettySize=auto;html=1;entryX=0;entryY=0.5;entryDx=0;entryDy=0;entryPerimeter=0;" parent="1" source="3DfL6tc4CCfVg-Idn4Z4-13" target="3DfL6tc4CCfVg-Idn4Z4-34" edge="1">
          <mxGeometry relative="1" as="geometry">
            <mxPoint x="380" y="440" as="targetPoint" />
            <Array as="points">
              <mxPoint x="380" y="440" />
            </Array>
          </mxGeometry>
        </mxCell>
        <mxCell id="3DfL6tc4CCfVg-Idn4Z4-13" value="a &amp;gt; b" style="rhombus;whiteSpace=wrap;html=1;" parent="1" vertex="1">
          <mxGeometry x="320" y="290" width="120" height="60" as="geometry" />
        </mxCell>
        <mxCell id="3DfL6tc4CCfVg-Idn4Z4-22" value="Input a, b" style="shape=parallelogram;html=1;strokeWidth=2;perimeter=parallelogramPerimeter;whiteSpace=wrap;rounded=1;arcSize=12;size=0.23;" parent="1" vertex="1">
          <mxGeometry x="40" y="160" width="120" height="60" as="geometry" />
        </mxCell>
        <mxCell id="3DfL6tc4CCfVg-Idn4Z4-23" value="true" style="text;html=1;align=center;verticalAlign=middle;resizable=0;points=[];autosize=1;strokeColor=none;fillColor=none;" parent="1" vertex="1">
          <mxGeometry x="385" y="260" width="40" height="30" as="geometry" />
        </mxCell>
        <mxCell id="3DfL6tc4CCfVg-Idn4Z4-25" value="End" style="ellipse;whiteSpace=wrap;html=1;" parent="1" vertex="1">
          <mxGeometry x="760" y="290" width="80" height="60" as="geometry" />
        </mxCell>
        <mxCell id="3DfL6tc4CCfVg-Idn4Z4-27" value="false" style="text;html=1;align=center;verticalAlign=middle;resizable=0;points=[];autosize=1;strokeColor=none;fillColor=none;" parent="1" vertex="1">
          <mxGeometry x="390" y="360" width="50" height="30" as="geometry" />
        </mxCell>
        <mxCell id="3DfL6tc4CCfVg-Idn4Z4-36" style="edgeStyle=orthogonalEdgeStyle;rounded=0;orthogonalLoop=1;jettySize=auto;html=1;entryX=0.5;entryY=0;entryDx=0;entryDy=0;" parent="1" source="3DfL6tc4CCfVg-Idn4Z4-33" target="3DfL6tc4CCfVg-Idn4Z4-25" edge="1">
          <mxGeometry relative="1" as="geometry">
            <mxPoint x="800" y="200" as="targetPoint" />
          </mxGeometry>
        </mxCell>
        <mxCell id="3DfL6tc4CCfVg-Idn4Z4-33" value="Print(&quot;so nho hon la b&quot;)" style="strokeWidth=2;html=1;shape=mxgraph.flowchart.display;whiteSpace=wrap;" parent="1" vertex="1">
          <mxGeometry x="510" y="90" width="140" height="60" as="geometry" />
        </mxCell>
        <mxCell id="3DfL6tc4CCfVg-Idn4Z4-37" style="edgeStyle=orthogonalEdgeStyle;rounded=0;orthogonalLoop=1;jettySize=auto;html=1;exitX=1;exitY=0.5;exitDx=0;exitDy=0;exitPerimeter=0;entryX=0.5;entryY=1;entryDx=0;entryDy=0;" parent="1" source="3DfL6tc4CCfVg-Idn4Z4-34" target="3DfL6tc4CCfVg-Idn4Z4-25" edge="1">
          <mxGeometry relative="1" as="geometry">
            <mxPoint x="800" y="440" as="targetPoint" />
          </mxGeometry>
        </mxCell>
        <mxCell id="3DfL6tc4CCfVg-Idn4Z4-34" value="Print(&quot;so nho hon la a&quot;)" style="strokeWidth=2;html=1;shape=mxgraph.flowchart.display;whiteSpace=wrap;" parent="1" vertex="1">
          <mxGeometry x="520" y="410" width="140" height="60" as="geometry" />
        </mxCell>
      </root>
    </mxGraphModel>
  </diagram>
</mxfile>
